<svg id="Layer_1" data-name="Layer 1" xmlns="http://www.w3.org/2000/svg" viewBox="0 0 223.08 208.19"><defs><style>.cls-1{fill:#e98d10;}.cls-2{fill:#231f20;}.cls-3{fill:#f4a809;}.cls-4{fill:#13110c;}.cls-5{fill:#fefefe;}.cls-6{fill:#4d4947;}.cls-7{fill:#e20713;}.cls-8{fill:#e10713;}.cls-9{fill:#12100b;}.cls-10{fill:#cfcfcf;}.cls-11{fill:#6b79eb;}.cls-12{fill:#fafbfc;}.cls-13{fill:#4f5cb6;}.cls-14{fill:#e693ce;}.cls-15{fill:#090712;}.cls-16{fill:#020103;}.cls-17{fill:#f6bae9;}.cls-18{fill:#1f183f;}.cls-19{fill:#c1bef0;}.cls-20{fill:#f9b0e3;}.cls-21{fill:#432f7c;}.cls-22{fill:#f78ed8;}.cls-23{fill:#ca4b9a;}</style></defs><title>bus p</title><path class="cls-1" d="M36.17,128.41q-.09-12.92-.17-25.83a4.89,4.89,0,0,0,0-6.33q.09-23.92.17-47.84c11,0,22-.11,33,.07,3.08.05,4-.83,3.92-3.92-.2-9.33-.07-18.66-.07-28l23.95-2.26c.92,1.31,2.32,1.09,3.63,1.09h39.86c1.31,0,2.7.22,3.62-1.09,7.9,1.73,16.18.6,23.95,3.26,0,9.33.12,18.66-.07,28-.07,3.09.84,4,3.92,3.92,10.66-.18,21.32-.07,32-.07q.16,23.5.32,47,0,3,0,6,0,13-.05,26c-4.52-.1-8.34-2.29-12-4.54a122.62,122.62,0,0,0-20.24-9.55c-23.87-9.32-48.66-8.82-73.61-7-17.62,1.31-33.51,7.72-48.78,16C45.22,125.59,41,127.72,36.17,128.41ZM183,94.26h6c2,.05,4,0,6,.18,3,.24,4.1-1.09,4.07-4.09q-.17-15,0-29.92c0-3.06-1.16-4.06-4.13-4.05q-32.91.11-65.82,0c-3,0-4.17,1-4.14,4q.17,15.46,0,30.91c0,2.37.7,3.19,3.1,3.12,6-.18,12-.15,17.94-.2h37ZM79,94.41c11,0,22-.08,33,.05,2.82,0,4.15-.38,4.07-3.72-.24-10-.17-20,0-30,0-3.23-1.06-4.4-4.34-4.39q-32.75.15-65.5,0c-3.34,0-4.31,1.29-4.27,4.45.14,9.66.16,19.33,0,29-.06,3.44,1,4.72,4.58,4.66C57.35,94.3,68.18,94.41,79,94.41Zm76-65.28c2.54,3.61,4.4,6.39,6.4,9,.86,1.14,1.8,2.64,3.58,2.1s.94-2.23,1-3.39c.12-3.48,0-7,0-10.44,0-1,0-2-1.51-2S163,25.52,163,26.52c0,2.15,0,4.29,0,7.74-2.64-3.67-4.32-6-6-8.39A3.59,3.59,0,0,0,153,24.51c-1.14.24-1,1.16-1,1.93q0,6,0,11.93c0,1,.06,2,1.52,2S155,39.29,155,38.29C155,35.64,155,33,155,29.14ZM128.5,24.41c-4-1.11-4.94,1.14-4.55,5.06.26,2.62,0,5.29.06,7.93,0,1-.33,2.52.63,2.69,3.22.59,6.57.92,9.41-1.31,2.31-1.81,2.92-3.93.6-6.26a1.52,1.52,0,0,1-.43-1.77C136.38,25.45,133.46,24.29,128.5,24.41ZM74,32.79c.71,2-1.54,5.89.89,7.21,2.62,1.42,6.46,1,9.28-1.29,2.34-1.9,2.69-4,.4-6.28a1.46,1.46,0,0,1-.26-1.77c1.74-4,0-5.89-4-6.22-3.74-.31-7.53-.6-6.36,5.19A19.61,19.61,0,0,1,74,32.79ZM88,30.4c0,1.55,0,2.72,0,3.88.07,4,2.1,6.22,6.09,6.08,3.7-.13,6.88-1.29,6.9-5.91q0-4,0-8c0-1-.07-2-1.53-2S98,25.56,98,26.56a65.32,65.32,0,0,1-.21,8,3,3,0,0,1-3.22,3c-2.23,0-2.91-1.31-3.36-2.83-.37-1.23,0-2.68-.27-3.95-.51-2.07,1.45-5.92-1.24-5.92C86.17,24.8,89,28.8,88,30.4Zm22.16-6c-5.33,0-7.15,1.72-6.12,5.71.66,2.54,2.9,2.78,4.91,3.34,1,.28,1.93.89,1.88,2-.07,1.33-1.1,1.95-2.4,2a6.74,6.74,0,0,1-2.93-.22c-1.26-.64-1.9-.15-2.27.83-.59,1.54,1,1.51,1.71,1.79,3.32,1.31,7.06,1.27,8.66-2,1.73-3.55.25-6.74-4.33-7.4-1.27-.18-2.41-.95-2-2.21A2.12,2.12,0,0,1,110,27c1.89.78,3.8.44,3.73-1.52S111.27,24.9,110.16,24.42Zm40.58,14.47c-1.58-2.23-3.58-1.4-5.29-1.44a5.38,5.38,0,0,1-5.31-4.33c-.66-2.43.82-4.25,3.1-5.41,1.63-.83,3.08-1.32,4.94-.42,1.15.55,2.21-.39,2.62-1.63.13-.39,0-.8-.58-1.13-4.7-2.74-13,1.68-13.22,7.06C136.75,39.12,143.22,42.6,150.74,38.89Zm-35.52-5.3c2.56.59,5.16,1.53,7.6-.5C120.28,32.48,117.74,32,115.22,33.59Z" transform="translate(-8.95 -5.34)"/><path class="cls-2" d="M217.83,173.42c.22,4.12-2.06,7.37-3.8,10.8-1.23,2.42-3.54,1.1-5.28,1.13-8.75.16-8.75.08-8.75,8.84,0,5.16-.09,10.33,0,15.48.07,2.82-1.09,3.8-3.85,3.78q-18.23-.13-36.46,0c-2.84,0-3.86-1.13-3.75-3.87.13-3.49-.22-7,.1-10.48.31-3.29-1-3.76-3.93-3.74q-32.22.18-64.43,0c-3.21,0-4,.94-3.76,3.92.25,3.14-.16,6.34.11,9.48.33,3.86-1.34,4.81-4.94,4.75-11-.19-22-.28-33,0-4.42.13-5.4-1.53-5.23-5.51.27-6.32,0-12.65.13-19,.08-2.69-.5-4.11-3.48-3.64a15.94,15.94,0,0,1-2.49,0c-8.87,0-12.34-3.79-11.92-13q94.47,0,188.95,0C214.06,172.43,216.12,171.95,217.83,173.42Z" transform="translate(-8.95 -5.34)"/><path class="cls-3" d="M217.83,173.42c-1.71-1.47-3.78-1-5.72-1q-94.47,0-188.95,0C19.23,159.59,17.8,147,25.74,134.9c2.6-4,7.2-4,10.43-6.48,4.84-.7,9.05-2.82,13.33-5.13,15.27-8.24,31.16-14.65,48.78-16,25-1.86,49.74-2.36,73.61,7a122.62,122.62,0,0,1,20.24,9.55c3.64,2.25,7.45,4.44,12,4.54,13.86,4.32,17.14,13.55,16,30.17C219.8,163.61,219.39,168.58,217.83,173.42Zm-97.5-7H154.8c7.62,0,11.15-3.51,11.19-11.19q.06-12.24,0-24.48c0-6.69-4.26-11.25-11-11.28q-34.47-.17-68.94,0c-7.22,0-11,4.27-11,11.6q0,12.49,0,25c0,6.89,3.48,10.35,10.36,10.37C97,166.43,108.68,166.41,120.33,166.42ZM60,148.76c0-10.05-9.13-17.95-18.12-17.43s-17,8.54-16.88,17.78c.11,9,8.36,17.22,17.42,17.31S60.09,157.93,60,148.76Zm121,.07c-.34,10.49,8.12,17,17.51,17.48s17.08-7.7,17.48-17.64c.35-8.88-8.36-17.24-18-17.25A17.31,17.31,0,0,0,181,148.83Z" transform="translate(-8.95 -5.34)"/><path class="cls-2" d="M73,16.58c0,9.33-.12,18.66.07,28,.07,3.09-.84,4-3.92,3.92-11-.18-22-.07-33-.07-.06-3-.13-6-.16-9,0-3.87,1.91-6.24,4.56-9.23C49.38,20.24,61.42,19.25,73,16.58ZM65,35.71c0-8.51-1.62-10.29-9.38-10.3-7.44,0-11.46,3.38-11.6,9.79A10.79,10.79,0,0,0,55.15,46.42C62.63,46.37,65,43.78,65,35.71Z" transform="translate(-8.95 -5.34)"/><path class="cls-2" d="M203.83,49.41c-10.66,0-21.33-.11-32,.07-3.08.05-4-.83-3.92-3.92.2-9.33.07-18.66.07-28,10.15.91,20,3.27,28.44,9C204.53,32.12,205.23,40.56,203.83,49.41ZM194,36.1c0-7.73-3.36-11.66-10-11.66a11.45,11.45,0,0,0-11,11.14c.1,6.17,4.47,10.81,10.22,10.84C191.51,46.46,194,44.08,194,36.1Z" transform="translate(-8.95 -5.34)"/><path class="cls-2" d="M218.94,89.53c-6.94-.25-6.94-.25-6.94-7.16,0-5.64.11-11.29,0-16.93-.09-3,1-4.18,4.07-4.06,4.14.17,8.3.11,12.45,0,2.55-.06,3.58,1,3.55,3.54-.08,7,0,13.95,0,20.92,0,5.58-4.44,2.81-6.94,3.68A4.35,4.35,0,0,0,218.94,89.53Z" transform="translate(-8.95 -5.34)"/><path class="cls-2" d="M15.94,89.53C9,89.28,9,89.28,9,82.37c0-5.64.11-11.29,0-16.93-.09-3,1-4.19,4.07-4.06,4.14.17,8.3.11,12.45,0,2.55-.06,3.59,1,3.56,3.54-.08,7,0,13.95,0,20.92,0,5.58-4.43,2.81-6.94,3.67A4.35,4.35,0,0,0,15.94,89.53Z" transform="translate(-8.95 -5.34)"/><path class="cls-3" d="M144.06,14.32c-.92,1.31-2.32,1.09-3.62,1.09H100.57c-1.31,0-2.7.22-3.63-1.09,3.85-5.93,10-7.81,16.37-8.47C124.53,4.68,135.66,4.79,144.06,14.32Z" transform="translate(-8.95 -5.34)"/><path class="cls-4" d="M15.94,89.53a4.35,4.35,0,0,1,6.12,0c3.28,5.07,8.48,6.16,13.93,6.73a4.89,4.89,0,0,1,0,6.33c-6.3-1.1-12.91-1.31-17.42-7C17.13,93.73,15.87,92,15.94,89.53Z" transform="translate(-8.95 -5.34)"/><path class="cls-4" d="M218.94,89.53a4.35,4.35,0,0,1,6.12,0,15.07,15.07,0,0,1-12.35,11.75c-2.83.41-5.58,1.8-8.55,1.14q0-3,0-6C209.88,95.83,215.45,94.9,218.94,89.53Z" transform="translate(-8.95 -5.34)"/><path class="cls-5" d="M79,94.41c-10.83,0-21.67-.11-32.5.06-3.54.06-4.64-1.22-4.58-4.66.17-9.66.15-19.33,0-29,0-3.17.92-4.47,4.27-4.45q32.75.15,65.5,0c3.28,0,4.38,1.16,4.34,4.39-.14,10-.2,20,0,30,.08,3.35-1.25,3.76-4.07,3.72C101,94.34,90,94.41,79,94.41Z" transform="translate(-8.95 -5.34)"/><path class="cls-5" d="M146,94.26c-6,.05-12,0-17.94.2-2.4.07-3.13-.75-3.1-3.12q.16-15.46,0-30.91c0-3.06,1.17-4.06,4.14-4q32.91.11,65.82,0c3,0,4.17,1,4.13,4.05q-.18,15,0,29.92c0,3-1,4.33-4.07,4.09-2-.16-4-.12-6-.18,0-7.16-4.75-15.32-17.17-18.46C161.42,73.16,145,81.23,146,94.26Z" transform="translate(-8.95 -5.34)"/><path class="cls-5" d="M152,94.26c1.46-8.53,7.38-11.62,14.79-12.76,6.28-1,13.89,5.32,16.21,12.76Z" transform="translate(-8.95 -5.34)"/><path d="M155,29.14c0,3.86,0,6.51,0,9.16,0,1,0,2-1.44,2.07s-1.52-1-1.52-2q0-6,0-11.93c0-.77-.14-1.69,1-1.93A3.59,3.59,0,0,1,157,25.88c1.73,2.34,3.41,4.72,6,8.39,0-3.45,0-5.6,0-7.74,0-1,0-2,1.46-2.06s1.5,1,1.51,2c0,3.48.09,7,0,10.44,0,1.16.84,2.84-1,3.39s-2.72-1-3.58-2.1C159.39,35.52,157.53,32.75,155,29.14Z" transform="translate(-8.95 -5.34)"/><path d="M128.5,24.41c5-.12,7.88,1,5.73,6.36a1.52,1.52,0,0,0,.43,1.77c2.32,2.33,1.71,4.45-.6,6.26-2.84,2.23-6.19,1.9-9.41,1.31-1-.17-.62-1.73-.63-2.69,0-2.65.2-5.31-.06-7.93C123.56,25.56,124.49,23.3,128.5,24.41ZM132,35.16c.05-2.11-1.38-1.66-2.42-1.73-1.39-.1-2.61,0-2.54,2,0,1.42.49,2.07,2,2C130.7,37.38,131.77,36.72,132,35.16Zm-3.09-8.67c-1.54-.17-1.79.61-1.87,1.73-.13,1.72.6,2.29,2.25,2.21,1.28-.06,2.51-.61,2.53-1.73C131.81,26.85,129.81,27.08,128.86,26.49Z" transform="translate(-8.95 -5.34)"/><path d="M74,32.79a19.61,19.61,0,0,0,0-3.16c-1.17-5.79,2.62-5.5,6.36-5.19,4,.33,5.7,2.23,4,6.22a1.46,1.46,0,0,0,.26,1.77c2.29,2.26,1.95,4.37-.4,6.28C81.35,41,77.51,41.42,74.89,40,72.46,38.67,74.71,34.78,74,32.79Zm4.77,4.62c1.83,0,3-.55,3.18-2.4s-1.26-1.53-2.34-1.57c-1.34-.05-2.66-.14-2.61,1.89C77,36.68,77.35,37.55,78.77,37.4Zm0-10.92c-1.77-.11-1.66.94-1.75,1.92-.17,1.88.94,2.1,2.41,2,1.27-.08,2.51-.71,2.34-1.87C81.53,27,79.81,26.79,78.76,26.48Z" transform="translate(-8.95 -5.34)"/><path d="M88,30.4c1-1.6-1.83-5.6,1.71-5.6,2.69,0,.73,3.86,1.24,5.92.31,1.26-.1,2.71.27,3.95.45,1.52,1.13,2.84,3.36,2.83a3,3,0,0,0,3.22-3,65.32,65.32,0,0,0,.21-8c0-1,0-2,1.44-2.09s1.52,1,1.53,2q0,4,0,8c0,4.62-3.2,5.78-6.9,5.91-4,.14-6-2.09-6.09-6.08C88,33.12,88,32,88,30.4Z" transform="translate(-8.95 -5.34)"/><path d="M110.16,24.42c1.11.48,3.48-1,3.55,1.06S111.87,27.77,110,27a2.12,2.12,0,0,0-2.75,1.18c-.36,1.26.78,2,2,2.21,4.57.66,6.06,3.84,4.33,7.4-1.6,3.27-5.34,3.31-8.66,2-.7-.28-2.29-.24-1.71-1.79.37-1,1-1.47,2.27-.83a6.74,6.74,0,0,0,2.93.22c1.29,0,2.33-.63,2.4-2,.05-1.07-.85-1.68-1.88-2-2-.56-4.26-.79-4.91-3.34C103,26.13,104.82,24.4,110.16,24.42Z" transform="translate(-8.95 -5.34)"/><path d="M150.74,38.89c-7.52,3.71-14,.23-13.74-7.3.18-5.38,8.51-9.8,13.22-7.06.57.33.71.74.58,1.13-.4,1.24-1.47,2.18-2.62,1.63-1.86-.89-3.31-.41-4.94.42-2.28,1.16-3.77,3-3.1,5.41a5.38,5.38,0,0,0,5.31,4.33C147.16,37.49,149.16,36.66,150.74,38.89Z" transform="translate(-8.95 -5.34)"/><path d="M115.22,33.59c2.52-1.58,5.06-1.12,7.6-.5C120.38,35.12,117.78,34.18,115.22,33.59Z" transform="translate(-8.95 -5.34)"/><path class="cls-6" d="M120.33,166.41c-11.66,0-23.31,0-35,0C78.49,166.39,75,162.92,75,156q0-12.49,0-25c0-7.33,3.8-11.56,11-11.6q34.47-.19,68.94,0c6.77,0,11,4.59,11,11.28q0,12.24,0,24.48c0,7.68-3.57,11.19-11.19,11.19Zm-.17-29c12,0,24,0,36,0,1.5,0,3.73.68,3.69-2s-2.28-1.93-3.76-1.93q-35.5-.06-71,0c-1.46,0-3.76-.85-3.92,1.75-.18,3.07,2.4,2.16,4,2.17C96.83,137.45,108.49,137.41,120.16,137.41Zm.09,16h33.49a16.11,16.11,0,0,0,2.5,0c1.31-.21,3.58.75,3.43-1.58-.13-2.14-2.34-1.12-3.67-1.39a2.58,2.58,0,0,0-.5,0q-35,0-70,0c-1.46,0-4.11-.95-4.12,1.33,0,2.79,2.83,1.54,4.36,1.56C97.25,153.47,108.75,153.41,120.24,153.42Zm0-8h33.49a16.09,16.09,0,0,0,2.5,0c1.31-.21,3.58.75,3.43-1.58-.13-2.14-2.34-1.12-3.67-1.39a2.58,2.58,0,0,0-.5,0q-35,0-70,0c-1.46,0-4.11-.95-4.12,1.33,0,2.79,2.83,1.54,4.36,1.56C97.25,145.47,108.75,145.41,120.25,145.42ZM82.47,128.13h76.08c-1.77-2.6-4-2.72-6.34-2.72H88.77C86.45,125.41,84.21,125.56,82.47,128.13Zm75.72,31.58v-.79H82.91v.79Z" transform="translate(-8.95 -5.34)"/><path class="cls-2" d="M60,148.76c.09,9.17-8.44,17.74-17.58,17.65S25.11,158.13,25,149.1c-.11-9.24,7.86-17.26,16.88-17.78S60,138.71,60,148.76ZM42.65,135.42C36.21,135.3,29.11,142,29,148.33s7.43,14.21,13.6,14.06c5.93-.14,13.62-7.41,13.29-13.27C55.47,141.44,50.68,136.52,42.65,135.42Z" transform="translate(-8.95 -5.34)"/><path class="cls-2" d="M181,148.83a17.31,17.31,0,0,1,17-17.41c9.6,0,18.31,8.37,18,17.25-.39,9.94-8.1,18.13-17.48,17.64S180.66,159.31,181,148.83Zm4-.53c-.08,7.21,6.64,14.2,13.55,14.09,5.61-.09,13.26-7.5,13.36-13,.13-6.7-6.54-13.81-13.17-14C192.31,135.21,185.07,142,185,148.3Z" transform="translate(-8.95 -5.34)"/><path class="cls-7" d="M65,35.71c0,8.07-2.38,10.66-9.85,10.7A10.79,10.79,0,0,1,44,35.2c.14-6.41,4.16-9.8,11.6-9.79C63.38,25.42,65,27.2,65,35.71Z" transform="translate(-8.95 -5.34)"/><path class="cls-8" d="M194,36.1c0,8-2.49,10.37-10.77,10.32-5.75,0-10.12-4.67-10.22-10.84a11.45,11.45,0,0,1,11-11.14C190.64,24.44,194,28.37,194,36.1Z" transform="translate(-8.95 -5.34)"/><path class="cls-1" d="M132,35.16c-.18,1.56-1.25,2.22-3,2.26-1.5,0-1.94-.62-2-2-.07-2,1.16-2.05,2.54-2C130.58,33.5,132,33.05,132,35.16Z" transform="translate(-8.95 -5.34)"/><path class="cls-1" d="M128.86,26.49c.95.59,2.95.36,2.91,2.21,0,1.12-1.25,1.67-2.53,1.73-1.65.08-2.38-.49-2.25-2.21C127.07,27.09,127.32,26.32,128.86,26.49Z" transform="translate(-8.95 -5.34)"/><path class="cls-1" d="M78.77,37.4c-1.42.15-1.74-.73-1.77-2.08-.06-2,1.27-1.94,2.61-1.89,1.08,0,2.49-.28,2.34,1.57S80.59,37.44,78.77,37.4Z" transform="translate(-8.95 -5.34)"/><path class="cls-1" d="M78.76,26.48c1.06.31,2.78.49,3,2.06.16,1.16-1.07,1.79-2.34,1.87-1.47.09-2.58-.13-2.41-2C77.09,27.42,77,26.37,78.76,26.48Z" transform="translate(-8.95 -5.34)"/><path class="cls-9" d="M120.16,137.41c-11.67,0-23.33,0-35,0-1.59,0-4.17.9-4-2.17.15-2.6,2.45-1.75,3.92-1.75q35.5-.08,71,0c1.48,0,3.72-.73,3.76,1.93s-2.19,2-3.69,2C144.16,137.44,132.16,137.41,120.16,137.41Z" transform="translate(-8.95 -5.34)"/><path class="cls-9" d="M120.24,153.41c-11.5,0-23,.05-34.49-.07-1.53,0-4.37,1.23-4.36-1.56,0-2.28,2.66-1.32,4.12-1.33q35-.1,70,0a2.58,2.58,0,0,1,.5,0c1.33.27,3.54-.75,3.67,1.39.14,2.33-2.13,1.38-3.43,1.58a16.11,16.11,0,0,1-2.5,0Z" transform="translate(-8.95 -5.34)"/><path class="cls-9" d="M120.25,145.41c-11.5,0-23,.05-34.49-.07-1.53,0-4.37,1.23-4.36-1.56,0-2.28,2.66-1.33,4.12-1.33q35-.1,70,0a2.58,2.58,0,0,1,.5,0c1.33.27,3.54-.75,3.67,1.39.14,2.33-2.13,1.38-3.43,1.58a16.09,16.09,0,0,1-2.5,0Z" transform="translate(-8.95 -5.34)"/><path class="cls-9" d="M82.47,128.13c1.74-2.57,4-2.72,6.3-2.71H152.2c2.33,0,4.58.12,6.34,2.72Z" transform="translate(-8.95 -5.34)"/><path class="cls-9" d="M158.19,159.71H82.92v-.79h75.27Z" transform="translate(-8.95 -5.34)"/><path class="cls-10" d="M42.65,135.42c8,1.11,12.83,6,13.26,13.7.33,5.87-7.36,13.13-13.29,13.27-6.17.15-13.71-7.64-13.6-14.06S36.21,135.3,42.65,135.42Zm-.25,3A10.11,10.11,0,0,0,32,148.85a10.79,10.79,0,0,0,11.11,10.57c5.24-.05,10-5.22,9.89-10.77A10.27,10.27,0,0,0,42.4,138.42Z" transform="translate(-8.95 -5.34)"/><path class="cls-10" d="M185,148.3c.07-6.31,7.31-13.09,13.74-12.88,6.63.22,13.31,7.33,13.17,14-.11,5.45-7.76,12.86-13.36,13C191.64,162.5,184.92,155.51,185,148.3Zm3-.07c0,6.44,3.94,11,9.71,11.18a10.88,10.88,0,0,0,11.29-11c0-5.3-5-10-10.68-10C191.9,138.35,188,142,188,148.23Z" transform="translate(-8.95 -5.34)"/><path class="cls-2" d="M42.4,138.42A10.27,10.27,0,0,1,53,148.65c.09,5.55-4.65,10.71-9.89,10.77A10.79,10.79,0,0,1,32,148.85,10.11,10.11,0,0,1,42.4,138.42ZM34,149c0,4.06,4.56,8.49,8.58,8.41s8.47-4.54,8.41-8.58-4.48-8.45-8.58-8.41S34,144.89,34,149Z" transform="translate(-8.95 -5.34)"/><path class="cls-2" d="M188,148.23c0-6.21,3.9-9.88,10.32-9.82,5.72.06,10.7,4.74,10.68,10a10.88,10.88,0,0,1-11.29,11C191.94,159.25,188,154.67,188,148.23Zm2,.68c0,3.87,4.44,8.54,8.07,8.5s8.74-4.93,8.92-8.34c.21-3.94-4.33-8.62-8.42-8.65S190,144.78,190,148.91Z" transform="translate(-8.95 -5.34)"/><path class="cls-5" d="M34,149c0-4.1,4.3-8.53,8.41-8.57s8.53,4.29,8.58,8.41-4.32,8.51-8.41,8.58S34,153,34,149Z" transform="translate(-8.95 -5.34)"/><path class="cls-5" d="M190,148.91c0-4.14,4.44-8.54,8.57-8.5s8.63,4.71,8.42,8.65c-.18,3.41-5.41,8.3-8.92,8.34S190,152.78,190,148.91Z" transform="translate(-8.95 -5.34)"/><path class="cls-11" d="M159.09,94.36H159c.1-.9,0-1.8.11-2.7,0-.2-.1-.41,0-.6a.57.57,0,0,0,.28,0c1.78-.36,3.57-.71,5.35-1.09s3.53-.79,5.3-1.19l3.66-.82c1.39-.32,2.77-.63,4.15-1a2.13,2.13,0,0,0,.91-.27c.19.12.14.36.24.52.45.73.71,1.55,1.09,2.3a1.33,1.33,0,0,0-.45.05c-1.55.38-3.09.78-4.64,1.13-2.28.52-4.57,1-6.85,1.53-1.92.42-3.84.82-5.76,1.23l-3.07.62C159.24,94.13,159,94.1,159.09,94.36Z" transform="translate(-8.95 -5.34)"/><path class="cls-12" d="M159.09,94.36c-.08-.26.14-.23.27-.25l3.07-.62c1.92-.4,3.84-.81,5.76-1.23,2.29-.5,4.57-1,6.85-1.53,1.55-.36,3.09-.75,4.64-1.13a1.32,1.32,0,0,1,.45-.05l1.09,2.84h0l0,.15-1.88.44-6.09,1.4Z" transform="translate(-8.95 -5.34)"/><path class="cls-13" d="M182.23,92.12l.65,1.89c0,.11.06.23.09.35h-1.14a.88.88,0,0,0,0-.28c-.23-.5-.34-1-.55-1.56l0-.15h0l-1.09-2.84c-.38-.76-.64-1.58-1.09-2.3-.1-.16-.05-.4-.24-.52a14.11,14.11,0,0,0-1-1.74c-.15-.23-.24-.52-.51-.65a.28.28,0,0,0-.05-.19l-.53-.69a10.62,10.62,0,0,0-1.85-1.92c0-.1-.11-.15-.18-.21a13.92,13.92,0,0,0-1.27-.93v-.19a.8.8,0,0,0,.23-.38.07.07,0,0,0,0,0,.28.28,0,0,1,.38-.06,12.89,12.89,0,0,1,3.42,3.07c0,.13-.06.15-.15.19a.45.45,0,0,0-.25.44c0,.15.06.26.23.27.33.12.69.1,1,.24.48.79,1,1.57,1.41,2.4.29.58.59,1.16.87,1.76.44,1,.84,1.93,1.22,2.91A4.85,4.85,0,0,0,182.23,92.12Z" transform="translate(-8.95 -5.34)"/><path class="cls-13" d="M159.13,91.05c-.13.19,0,.4,0,.6-.08.9,0,1.8-.11,2.7h-1a27.38,27.38,0,0,1,0-2.92,2.72,2.72,0,0,0,0-.31,23.06,23.06,0,0,1,.45-3.26,1.63,1.63,0,0,0,0-.23.43.43,0,0,0,.08-.29l0-.12a.09.09,0,0,0,0-.11l.13-.56c.21-.7.5-1.37.74-2.06a.24.24,0,0,1,.3-.07,1.5,1.5,0,0,0,.48.16c.08,0,.22,0,.16.2l0,0a20.52,20.52,0,0,0-.92,3.1c-.05.21,0,.37.23.4-.29,0-.37.22-.39.48s-.09.6-.13.9h0v0l0,.26v.11h0v0l0,.47c-.1.08-.08.17,0,.27Z" transform="translate(-8.95 -5.34)"/><path class="cls-11" d="M181.26,92.52c.2.51.32,1.05.55,1.56a.88.88,0,0,1,0,.28h-8.55l6.09-1.4Z" transform="translate(-8.95 -5.34)"/><path class="cls-14" d="M160.49,84.79c.06-.15-.08-.16-.16-.2s-.1-.16-.2-.21-.41-.07-.6-.14a8,8,0,0,1-2.59-1.68,10.08,10.08,0,0,1-.95-1.07c-.2-.36-.42-.7-.6-1.07a7.66,7.66,0,0,1-.3-1.05,8,8,0,0,1-.32-2.83c0-.28,0-.57,0-.85s-.08-.22-.23-.2h-.11a5.26,5.26,0,0,1-.82,0,26.17,26.17,0,0,1-3.25-.71,6.29,6.29,0,0,1-.77-.25c-.32-.15-.63-.31-1-.46a2.52,2.52,0,0,1-.61-.26.56.56,0,0,0-.44-.14h0a.67.67,0,0,0-.28-.27,3.26,3.26,0,0,1-1.59-1.76,5.42,5.42,0,0,1-.22-2.9,5.57,5.57,0,0,1,.53-1.42,4.43,4.43,0,0,1,1-1.33c.17-.18.39-.28.57-.44a2.68,2.68,0,0,1,1.62-.78c.22,0,.49,0,.66-.21s.3-.09.45-.14c.43-.14.85-.29,1.29-.41a10.68,10.68,0,0,1,1.7-.38,9,9,0,0,0,1.28-.28,13.54,13.54,0,0,0,1.61-.39,10.56,10.56,0,0,1,1.27.5c0,.06,0,.13-.1.12a3.59,3.59,0,0,0-.72.14,3,3,0,0,0-.81.1,9.48,9.48,0,0,1-1.3.27c-.56.13-1.12.25-1.68.39s-1.08.32-1.62.49c-.11,0-.28,0-.3.16s.11.2.2.25a2.27,2.27,0,0,1,.87,1.37,7.26,7.26,0,0,1,.34,2.56,5.51,5.51,0,0,1-.61,2.56,3.39,3.39,0,0,1-1.32,1.36,2,2,0,0,0-.64.35,5.9,5.9,0,0,0,.89.32c.45.09.89.24,1.33.35a16,16,0,0,0,2.29.38c.25,0,.47,0,.63-.21a.28.28,0,0,1,.5,0c.17.26.41.26.65.3l.11,0a.3.3,0,0,1,.23.26c0,.12-.06.2-.18.26a1,1,0,0,1-.43.11c-.16,0-.32,0-.32.24s-.07.56-.07.85a10.43,10.43,0,0,0,.18,2.29,6.46,6.46,0,0,0,1.05,2.42,7,7,0,0,0,1.66,1.64,8.87,8.87,0,0,0,1.57.79,7.83,7.83,0,0,0,1.14.3,11.65,11.65,0,0,0,2.1.24,12.82,12.82,0,0,0,1.33-.06,5.34,5.34,0,0,0,1.12-.13c.67-.16,1.33-.34,2-.56a10.75,10.75,0,0,0,2.35-1.15,9.26,9.26,0,0,0,2.4-2.15,9.1,9.1,0,0,0,1.09-1.78,7.87,7.87,0,0,0,.66-2.39,9.56,9.56,0,0,0,.06-1.22c0-.42-.07-.85-.1-1.27a11.38,11.38,0,0,0-.18-1.2,7.81,7.81,0,0,0-.51-1.64,9.89,9.89,0,0,0-.61-1.31c-.23-.38-.48-.76-.73-1.13a8.73,8.73,0,0,0-1.62-1.77c-.08-.06-.12-.11-.11-.2l1,0a.58.58,0,0,0,.51.54h0c0,.11.07.17.12.25.25.4.72.66.81,1.18.29.09.33.39.48.59a7,7,0,0,1,.61,1.11,4.12,4.12,0,0,1,.46,1.22c0,.22.21.33.24.52.07.48.23.95.28,1.44s.15,1,.18,1.52a11.76,11.76,0,0,1-.31,2.75,2.33,2.33,0,0,1-.2.7c-.23.41-.37.86-.62,1.26-.1.15-.26.31-.22.54a.07.07,0,0,1,0,0c-.19.05-.31.15-.23.38v.19c-.12,0-.19,0-.26.13a10.52,10.52,0,0,1-.78.89c-.3.32-.68.56-1,.91a.48.48,0,0,0-.26.11c-.4.28-.83.51-1.23.78a10,10,0,0,1-2.53,1.1,12,12,0,0,1-2.58.59,12.15,12.15,0,0,1-3.19-.05A3.64,3.64,0,0,0,160.49,84.79ZM151.57,69a4.73,4.73,0,0,0-.48-2.54,1.67,1.67,0,0,0-.77-.82,1,1,0,0,0-1.09.08l-.05,0a4.51,4.51,0,0,0-1.56.95,3.86,3.86,0,0,0-1.14,1.85,4.29,4.29,0,0,0,0,2.67,1.83,1.83,0,0,0,.33.68,2.6,2.6,0,0,0,1.65.94,2.45,2.45,0,0,0,1.34-.19,3.13,3.13,0,0,0,.58-.43,3,3,0,0,0,1-1.6A3.77,3.77,0,0,0,151.57,69Z" transform="translate(-8.95 -5.34)"/><path class="cls-15" d="M167.45,57.68l.08,0c0,.07.12.06.19,0A21.6,21.6,0,0,1,171,58.83a14.11,14.11,0,0,1,3.28,1.86,5.51,5.51,0,0,1,1.45,1.58,2.1,2.1,0,0,1-.65,2.93,5.69,5.69,0,0,1-3.15.9c0-.15.11-.16.23-.19.43-.1.89,0,1.3-.21.11-.06.19-.06.11-.2s-.06-.13,0-.15.13,0,.12.11,0,.13.08.1c.24-.11.6,0,.72-.35,0-.09.14-.09.21-.13a.89.89,0,0,0,.49-.44c.06-.13.13-.31.28-.38s.34-.38.32-.66a7.47,7.47,0,0,0-.32-1.19c0-.11-.08-.21-.23-.22s-.24-.12-.25-.3-.44-.87-.68-.85-.47-.2-.6-.44a.37.37,0,0,0-.24-.18.58.58,0,0,1-.46-.34.23.23,0,0,0-.18-.12c-.4-.08-.68-.42-1.08-.51a.62.62,0,0,1-.43-.25c-.1-.19-.22-.18-.37-.09s-.13.1-.15,0c-.06-.36-.38-.41-.62-.46a5.61,5.61,0,0,0-1.38-.27.18.18,0,0,1-.13,0,1.14,1.14,0,0,0-1-.38,6.75,6.75,0,0,0-.79-.13c-.17,0-.33,0-.34.19s.19.11.3.14.22,0,.3,0c.44.35,1,.29,1.5.52a.28.28,0,0,0,.2,0,.34.34,0,0,1,.41.15.5.5,0,0,0,.6.16c.12,0,.25-.12.44,0-.17.06-.32.16-.08.23s.53.27.82.36a2.57,2.57,0,0,1,.67.25c.23.15.46.4.77.14l0,0c-.13.24-.1.35.14.41a3.89,3.89,0,0,1,1.13.71c.35.23.53.62.83.9a1.57,1.57,0,0,1,.45.57,2,2,0,0,1,.21,1h0c-.1,0-.12.08-.11.16a1,1,0,0,1-.62,1,2.74,2.74,0,0,1-.8.33,17.09,17.09,0,0,1-1.88.32,18.57,18.57,0,0,1-2.58,0,2.94,2.94,0,0,1-1-.15.33.33,0,0,0-.35,0,.26.26,0,0,1-.37-.09.32.32,0,0,0-.39-.15,1.35,1.35,0,0,1-1.1-.21.19.19,0,0,0-.11,0c-.62,0-1.19-.31-1.81-.24a.46.46,0,0,1-.22-.05,6.51,6.51,0,0,0-1.92-.39c-.14,0-.24-.16-.4-.11a.77.77,0,0,1-.64-.1,1.61,1.61,0,0,0-.72-.27,4.2,4.2,0,0,1-1.33-.33,1.58,1.58,0,0,0-.37-.12,3.13,3.13,0,0,1-.92-.26,2.37,2.37,0,0,0-.72-.25,1,1,0,0,1-.34-.14c-.27-.16-.49-.43-.88-.29a.39.39,0,0,1-.35-.13c-.1-.31-.36-.43-.56-.62s-.57-.2-.58-.56l-.08,0a.28.28,0,0,1-.26-.19.59.59,0,0,0-.26-.29.22.22,0,0,1-.13-.21c0-.13-.07-.2-.14-.29s-.25-.38-.08-.6.06-.25-.14-.25-.12-.12,0-.25.31-.28.27-.52l.17-.15c.12,0,.2,0,.19-.15a.81.81,0,0,1,.32-.19c.1,0,.25.07.23-.14l.22-.09c.22,0,.4-.12.62-.12s.09-.08.09-.15l.07,0a17,17,0,0,1,2.9-.57,18,18,0,0,1,7.29.52l.38.1c0,.07-.05.14-.07.21-.09.44-.09.44-.53.47h-.1a.57.57,0,0,0-.46-.13h-.16c-.17-.2-.41-.16-.63-.16h-.11c0-.1-.09-.12-.18-.05h-.16a.57.57,0,0,0-.54-.13h-.27c-.07-.08-.15-.06-.24,0h-.22c-.13-.11-.27-.05-.41,0l-.61,0a.46.46,0,0,0-.46,0h-.46a1.1,1.1,0,0,0-.74,0h-.22c-.1,0-.21,0-.3,0H159c-.14,0-.28-.05-.4.05l-.38,0a.1.1,0,0,0-.13,0H158c-.09,0-.17,0-.24,0h-.22a.1.1,0,0,0-.13,0h-.22a.42.42,0,0,0-.3.1l-.16,0a.1.1,0,0,0-.13,0h-.11a.1.1,0,0,0-.12.05h-.1a.11.11,0,0,0-.12,0,4.76,4.76,0,0,1-.53.21A3.54,3.54,0,0,0,154,59a.8.8,0,0,0-.12,1.08,5.32,5.32,0,0,0,.7.78A9.25,9.25,0,0,0,158,62.71a40.52,40.52,0,0,0,3.93,1c1.34.31,2.69.59,4.05.83.77.14,1.54.3,2.31.4s1.4.22,2.11.27a7,7,0,0,0,4-.62c.87-.49,1.09-1,.67-1.82a4.84,4.84,0,0,0-1.46-1.64,10.85,10.85,0,0,0-2.36-1.33,17.62,17.62,0,0,0-2.1-.79,2.73,2.73,0,0,0-1.2-.39l-.1,0a.22.22,0,0,0-.29-.1h-.11a.57.57,0,0,0-.52-.16h-.11c0-.12-.15-.09-.22-.14s-.12-.08-.1-.17a.58.58,0,0,1,.47-.51.91.91,0,0,1,.35.1A.1.1,0,0,0,167.45,57.68Z" transform="translate(-8.95 -5.34)"/><path class="cls-16" d="M175.45,63.63a2,2,0,0,0-.21-1,1.57,1.57,0,0,0-.45-.57c-.3-.28-.48-.66-.83-.9a3.89,3.89,0,0,0-1.13-.71c-.25-.06-.28-.17-.14-.41l0,0c-.31.26-.54,0-.77-.14a2.57,2.57,0,0,0-.67-.25c-.29-.09-.54-.27-.82-.36s-.09-.17.08-.23c-.19-.1-.32,0-.44,0a.5.5,0,0,1-.6-.16.34.34,0,0,0-.41-.15.28.28,0,0,1-.2,0c-.48-.23-1.06-.17-1.5-.52-.09-.07-.2,0-.3,0s-.31.08-.3-.14.17-.17.34-.19a6.75,6.75,0,0,1,.79.13,1.14,1.14,0,0,1,1,.38.18.18,0,0,0,.13,0,5.61,5.61,0,0,1,1.38.27c.24.05.56.11.62.46,0,.11.09,0,.15,0s.27-.1.37.09a.62.62,0,0,0,.43.25c.41.09.68.43,1.08.51a.23.23,0,0,1,.18.12.58.58,0,0,0,.46.34.37.37,0,0,1,.24.18c.13.23.23.47.6.44s.67.57.68.85.05.3.25.3.2.11.23.22a7.47,7.47,0,0,1,.32,1.19c0,.28,0,.53-.32.66s-.22.25-.28.38a.89.89,0,0,1-.49.44c-.08,0-.19,0-.21.13-.12.38-.48.24-.72.35-.07,0-.09,0-.08-.1s0-.12-.12-.11-.08.09,0,.15,0,.14-.11.2c-.42.23-.87.11-1.3.21-.12,0-.23,0-.23.19a.18.18,0,0,1-.16,0c0-.08-.12-.07-.2-.09s-.45,0-.64,0a3.91,3.91,0,0,0-1.13-.1,1,1,0,0,1-.28,0,7.85,7.85,0,0,0-1.07-.21c-.32-.06-.66,0-1-.16a.59.59,0,0,0-.24,0c-.2,0-.44,0-.6-.08a.44.44,0,0,0-.41-.08,1,1,0,0,1-.67,0,2.28,2.28,0,0,0-1-.24,5,5,0,0,1-1.72-.56c-.08,0-.19,0-.22.09s0,.13-.11.08a3,3,0,0,0-.75-.21,8.15,8.15,0,0,0-1.14-.33c-.38-.06-.76-.14-1.14-.18-.66-.09-1.13-.73-1.85-.65,0,0-.07,0-.11,0-.27-.07-.46-.34-.8-.28a.24.24,0,0,1-.29-.29c0-.12-.08-.13-.16-.16s-.17,0-.21.07-.13.11-.23,0-.29-.32-.45-.35c-.4-.05-.59-.44-1-.51,0,0-.05,0,0-.06.07-.29-.17-.26-.33-.3s-.27-.27-.46-.32,0-.08,0-.12,0-.25-.1-.33a1,1,0,0,1-.44-1.05.93.93,0,0,0,0-.52c.06,0,.11.17.17,0,.2,0,.31,0,.14.25s0,.42.08.6.15.16.14.29a.22.22,0,0,0,.13.21.59.59,0,0,1,.26.29.28.28,0,0,0,.26.19l.08,0c0,.37.39.37.58.56s.46.32.56.62a.39.39,0,0,0,.35.13c.39-.14.61.13.88.29a1,1,0,0,0,.34.14,2.37,2.37,0,0,1,.72.25,3.13,3.13,0,0,0,.92.26,1.58,1.58,0,0,1,.37.12,4.2,4.2,0,0,0,1.33.33,1.61,1.61,0,0,1,.72.27.77.77,0,0,0,.64.1c.16,0,.26.09.4.11a6.51,6.51,0,0,1,1.92.39.46.46,0,0,0,.22.05c.62-.07,1.2.25,1.81.24a.19.19,0,0,1,.11,0,1.35,1.35,0,0,0,1.1.21.32.32,0,0,1,.39.15.26.26,0,0,0,.37.09.33.33,0,0,1,.35,0,2.94,2.94,0,0,0,1,.15,18.57,18.57,0,0,0,2.58,0,17.09,17.09,0,0,0,1.88-.32,2.74,2.74,0,0,0,.8-.33,1,1,0,0,0,.62-1c0-.08,0-.15.11-.16s0,.18.05.25C175.65,63.7,175.65,63.7,175.45,63.63ZM159,63.58s-.05,0-.07,0,0,0-.06,0,0,0,.06,0S159,63.6,159,63.58Z" transform="translate(-8.95 -5.34)"/><path class="cls-17" d="M158.81,86.55l-.13.56c-.08,0-.12,0,0,.11l0,.12a1.82,1.82,0,0,1-1,.16c-1.32,0-2.63.09-3.95.13a.39.39,0,0,0-.38.28c-.13.29,0,.45.25.58s.17.39.14.59-.23.22-.41.21a1.37,1.37,0,0,1-.85-.62,3.35,3.35,0,0,0-.15-.34c0-.08-.13-.08-.2-.06s-.05.11,0,.16a1,1,0,0,1-.05.74h0c-.73,0-.79,0-.85-.56a1.09,1.09,0,0,1,.34-1.08c.11-.09.29-.15.29-.35h0c.1,0,.21,0,.21-.13s-.1-.14-.18-.14c-.37,0-.72-.14-1.09-.14s-.74,0-1-.31c0,0-.11,0-.16,0h0a.6.6,0,0,1,.39-.73h.28a9.46,9.46,0,0,1,1.54.31,2.92,2.92,0,0,1,.58.18c.23.07.39.33.68.25h0c0,.28.26.25.44.22a4.14,4.14,0,0,1,.9-.11.12.12,0,0,0,.14-.11c.45,0,.9-.07,1.35,0A19.63,19.63,0,0,1,158.81,86.55Z" transform="translate(-8.95 -5.34)"/><path class="cls-17" d="M178.3,83.93c-.33-.14-.69-.12-1-.24,0-.13-.05-.25,0-.39s0-.16.13-.18a8.51,8.51,0,0,1,1.14-.22c1.19,0,2.39.08,3.58.06a2.7,2.7,0,0,1,.93.1.92.92,0,0,0,.48,0c.16,0,.18-.12.16-.24h0a.38.38,0,0,0,.35-.15,4.37,4.37,0,0,1,.47-.45.33.33,0,0,1,.46,0,.39.39,0,0,1,.08.54,4.23,4.23,0,0,1-.56.53c-.08.07-.2.11-.15.24a.29.29,0,0,0,.29.22,3.87,3.87,0,0,1,1,0,.14.14,0,0,0,.15-.06h.17c.05.16.23.17.33.29s.16.57-.16.6a3.92,3.92,0,0,1-1.56-.05.18.18,0,0,0-.22.07.14.14,0,0,0,0,.2c.06.07.12.15.23.15a1.86,1.86,0,0,1,.43.48.59.59,0,0,1-.07.64.42.42,0,0,1-.48.18,1,1,0,0,1-.5-.3,3.88,3.88,0,0,1-.81-1.43.44.44,0,0,0-.47-.38L180.25,84A17.13,17.13,0,0,0,178.3,83.93Z" transform="translate(-8.95 -5.34)"/><path class="cls-17" d="M185.91,91a.38.38,0,0,0-.26.13,2.18,2.18,0,0,1-2,.64,1.46,1.46,0,0,0-1.09.11c-.21.13-.48,0-.73.05-.18-.17,0-.46-.22-.64s0-.13.09-.15.12,0,.13-.13h0c.1,0,.23.05.27-.08a.4.4,0,0,0-.11-.41,1.18,1.18,0,0,1,0-1.59c.2-.21.38-.43.57-.65h.63c.51-.1,1,.53,1.15.89a1.62,1.62,0,0,1,.11,1.13c0,.07,0,.18,0,.23s.15,0,.22-.09a1.74,1.74,0,0,0,.49-.8.82.82,0,0,1,.57-.43c.19-.06.56.27.55.51a1.27,1.27,0,0,1-.34,1.07C185.9,90.87,185.92,91,185.91,91Zm-2.5-1c0-.29-.28-.64-.53-.6s-.26.29-.27.49a.57.57,0,0,0,.46.57C183.24,90.46,183.41,90.23,183.41,90Z" transform="translate(-8.95 -5.34)"/><path class="cls-15" d="M153.16,59.07a.93.93,0,0,1,0,.52,1,1,0,0,0,.44,1.05c.14.08.24.16.1.33s-.05.11,0,.12.27.27.46.32.39,0,.33.3c0,0,0,.06,0,.06.37.07.57.45,1,.51.16,0,.31.22.45.35s.17.14.23,0,.11-.11.21-.07.18,0,.16.16a.24.24,0,0,0,.29.29c.34-.06.53.21.8.28,0,0,.07,0,.11,0,.72-.07,1.19.57,1.85.65.38,0,.76.13,1.14.18a8.15,8.15,0,0,1,1.14.33,3,3,0,0,1,.75.21c.07,0,.1,0,.11-.08s.14-.13.22-.09a5,5,0,0,0,1.72.56,2.28,2.28,0,0,1,1,.24,1,1,0,0,0,.67,0,.44.44,0,0,1,.41.08c.16.13.4.06.6.08a.59.59,0,0,1,.24,0c.3.2.64.1,1,.16a7.85,7.85,0,0,1,1.07.21,1,1,0,0,0,.28,0A3.91,3.91,0,0,1,171,66c.19.06.42,0,.64,0s.15,0,.2.09l-.29,0h-.23l-1,0c-1.3-.15-2.59-.36-3.87-.59-1.83-.33-3.65-.66-5.46-1.09-1.16-.27-2.29-.65-3.43-1a10.56,10.56,0,0,0-1.27-.5,17.62,17.62,0,0,1-1.66-.91,3.7,3.7,0,0,1-1.5-1.7,1.68,1.68,0,0,1,0-1.27Z" transform="translate(-8.95 -5.34)"/><path class="cls-18" d="M166.94,57.54a.58.58,0,0,0-.47.51c0,.1,0,.13.1.17s.19,0,.22.14c-.32-.1-.47.07-.6.33a7.71,7.71,0,0,1-.57,1,.35.35,0,0,1-.47.16c-.21-.1-.38-.28-.29-.52a2.46,2.46,0,0,1,.41-.8.5.5,0,0,0,.13-.57c.44,0,.44,0,.53-.47,0-.07,0-.14.07-.21a8.83,8.83,0,0,1,.9-1.19c.28-.3.48-.34.67-.15s.17.46-.07.72-.33.39-.49.59S166.89,57.43,166.94,57.54Z" transform="translate(-8.95 -5.34)"/><path class="cls-18" d="M153.16,59.07H153a1.29,1.29,0,0,1,.51-.76c0,.24-.17.35-.27.52s0,.18,0,.25S153.22,59,153.16,59.07Z" transform="translate(-8.95 -5.34)"/><path class="cls-18" d="M155.38,57.29c0,.07,0,.15-.09.15s-.4.16-.62.12A2.11,2.11,0,0,1,155.38,57.29Z" transform="translate(-8.95 -5.34)"/><path class="cls-19" d="M183.67,88.25h-.57A.34.34,0,0,1,183.67,88.25Z" transform="translate(-8.95 -5.34)"/><path class="cls-18" d="M154.45,57.67c0,.2-.13.14-.23.14A.41.41,0,0,1,154.45,57.67Z" transform="translate(-8.95 -5.34)"/><path class="cls-18" d="M153.91,58c0,.14-.07.17-.19.15A.29.29,0,0,1,153.91,58Z" transform="translate(-8.95 -5.34)"/><path class="cls-18" d="M167.72,57.75c-.07,0-.14,0-.19,0A.15.15,0,0,1,167.72,57.75Z" transform="translate(-8.95 -5.34)"/><path class="cls-18" d="M167.45,57.68a.1.1,0,0,1-.15,0A.12.12,0,0,1,167.45,57.68Z" transform="translate(-8.95 -5.34)"/><path class="cls-18" d="M155.45,57.26l-.07,0A0,0,0,0,1,155.45,57.26Z" transform="translate(-8.95 -5.34)"/><path class="cls-12" d="M159.22,90l0-.26a0,0,0,0,0,0,0c0-.3.11-.6.13-.9s.1-.45.39-.48a13.49,13.49,0,0,0,1.67-.33c2-.44,4.05-.9,6.08-1.34,2.62-.57,5.23-1.18,7.84-1.81a18.08,18.08,0,0,0,1.91-.51c.27.14.37.42.51.65a14.11,14.11,0,0,1,1,1.74,2.13,2.13,0,0,1-.91.27c-1.38.34-2.77.65-4.15,1l-3.66.82c-1.77.4-3.53.81-5.3,1.19s-3.57.73-5.35,1.09a.57.57,0,0,1-.28,0v-.19a.26.26,0,0,0,0-.27l0-.47a0,0,0,0,0,0,0v0A0,0,0,0,0,159.22,90Z" transform="translate(-8.95 -5.34)"/><path class="cls-11" d="M181.22,92.38h0Z" transform="translate(-8.95 -5.34)"/><path class="cls-11" d="M177.28,84.32a18.08,18.08,0,0,1-1.91.51c-2.61.63-5.22,1.24-7.84,1.81-2,.44-4,.91-6.08,1.34a13.49,13.49,0,0,1-1.67.33c-.26,0-.28-.2-.23-.4a20.52,20.52,0,0,1,.92-3.1l0,0a3.64,3.64,0,0,1,1.11.08,12.15,12.15,0,0,0,3.19.05,12,12,0,0,0,2.58-.59,10,10,0,0,0,2.53-1.1c.4-.27.84-.5,1.23-.78a.48.48,0,0,1,.26-.11l.2,0,3.25-.78a10.62,10.62,0,0,1,1.85,1.92l.53.69A.28.28,0,0,1,177.28,84.32Z" transform="translate(-8.95 -5.34)"/><path class="cls-12" d="M174.85,81.53l-3.25.78-.2,0c.27-.35.65-.59,1-.91a10.52,10.52,0,0,0,.78-.89c.07-.09.13-.16.26-.13a13.92,13.92,0,0,1,1.27.93C174.74,81.39,174.82,81.43,174.85,81.53Z" transform="translate(-8.95 -5.34)"/><path class="cls-19" d="M173.4,80.21c-.08-.22,0-.32.23-.38A.8.8,0,0,1,173.4,80.21Z" transform="translate(-8.95 -5.34)"/><path class="cls-11" d="M159.17,90.6a.26.26,0,0,1,0,.27C159.09,90.77,159.07,90.68,159.17,90.6Z" transform="translate(-8.95 -5.34)"/><path class="cls-19" d="M158.64,87.23c-.08-.07,0-.1,0-.11A.09.09,0,0,1,158.64,87.23Z" transform="translate(-8.95 -5.34)"/><path class="cls-11" d="M159.22,90a0,0,0,0,1,0,.08Z" transform="translate(-8.95 -5.34)"/><path class="cls-11" d="M159.2,90.09a0,0,0,0,1,0,0v0Z" transform="translate(-8.95 -5.34)"/><path class="cls-11" d="M159.26,89.69a0,0,0,0,1,0,0v0Z" transform="translate(-8.95 -5.34)"/><path class="cls-20" d="M157.5,63.44c1.14.35,2.27.73,3.43,1,1.81.43,3.64.76,5.46,1.09,1.29.23,2.57.45,3.87.59,0,.09,0,.14.11.2A8.73,8.73,0,0,1,172,68.09c.25.37.5.75.73,1.13a9.89,9.89,0,0,1,.61,1.31,7.81,7.81,0,0,1,.51,1.64,11.38,11.38,0,0,1,.18,1.2c0,.42.09.85.1,1.27a9.56,9.56,0,0,1-.06,1.22,7.87,7.87,0,0,1-.66,2.39A9.1,9.1,0,0,1,172.33,80a9.26,9.26,0,0,1-2.4,2.15,10.75,10.75,0,0,1-2.35,1.15c-.65.22-1.31.4-2,.56a5.34,5.34,0,0,1-1.12.13,12.82,12.82,0,0,1-1.33.06,11.65,11.65,0,0,1-2.1-.24,7.83,7.83,0,0,1-1.14-.3,8.87,8.87,0,0,1-1.57-.79,7,7,0,0,1-1.66-1.64,6.46,6.46,0,0,1-1.05-2.42,10.43,10.43,0,0,1-.18-2.29c0-.29.07-.56.07-.85s.17-.24.32-.24a1,1,0,0,0,.43-.11c.12-.06.2-.14.18-.26a.3.3,0,0,0-.23-.26l-.11,0c-.24,0-.48,0-.65-.3a.28.28,0,0,0-.5,0c-.16.23-.38.23-.63.21a16,16,0,0,1-2.29-.38c-.45-.11-.88-.27-1.33-.35a5.9,5.9,0,0,1-.89-.32,2,2,0,0,1,.64-.35,3.39,3.39,0,0,0,1.32-1.36,5.51,5.51,0,0,0,.61-2.56,7.26,7.26,0,0,0-.34-2.56,2.27,2.27,0,0,0-.87-1.37c-.09-.05-.22-.14-.2-.25s.19-.13.3-.16c.54-.17,1.08-.35,1.62-.49s1.12-.26,1.68-.39a9.48,9.48,0,0,0,1.3-.27,3,3,0,0,1,.81-.1,3.59,3.59,0,0,1,.72-.14C157.47,63.57,157.49,63.5,157.5,63.44Zm14.37,8.61a5.65,5.65,0,0,0-.21-1.47,7.37,7.37,0,0,0-.4-.8,1.85,1.85,0,0,0-1.21-1,2.84,2.84,0,0,0-2.62.73,3.68,3.68,0,0,0-1,1.29,2.55,2.55,0,0,0-.16,1.82,3.57,3.57,0,0,0,1.4,1.94,2.19,2.19,0,0,0,2.45.2,2.68,2.68,0,0,0,1.35-1.46A2.8,2.8,0,0,0,171.88,72.05Zm-14.32,8.26a.47.47,0,0,0,.24.51c.21.1.37,0,.52-.19a6.1,6.1,0,0,1,.91-.81,4.55,4.55,0,0,1,4.06-.74,5.32,5.32,0,0,1,2,1.06c.19.15.42.3.67.1s.4-.46.22-.8a3.72,3.72,0,0,0-.39-.69,5.32,5.32,0,0,0-1.48-1.35,4.81,4.81,0,0,0-3-.64,3.94,3.94,0,0,0-3,1.7A4.26,4.26,0,0,0,157.56,80.31Zm4.61-15a4,4,0,0,0-2.53.63c-.38.23-.52.47-.38.74a3.13,3.13,0,0,0,2.25,1.8,3,3,0,0,0,1.51,0A3.67,3.67,0,0,0,165,67.08a.5.5,0,0,0,.07-.54,2.08,2.08,0,0,0-1.12-.94A3,3,0,0,0,162.17,65.3Zm-5.7-.19a3.31,3.31,0,0,0-1.44.25c-.33.14-.65.31-1,.44s-.42.32-.23.63a3,3,0,0,0,1.24,1.27,3.31,3.31,0,0,0,3.75-.62.73.73,0,0,0,0-1.14A3.36,3.36,0,0,0,156.46,65.11Z" transform="translate(-8.95 -5.34)"/><path class="cls-20" d="M151.57,69a3.77,3.77,0,0,1-.19,1.61,3,3,0,0,1-1,1.6,3.13,3.13,0,0,1-.58.43,2.45,2.45,0,0,1-1.34.19,2.6,2.6,0,0,1-1.65-.94,1.83,1.83,0,0,1-.33-.68,4.29,4.29,0,0,1,0-2.67,3.86,3.86,0,0,1,1.14-1.85,4.51,4.51,0,0,1,1.56-.95l.05,0a1,1,0,0,1,1.09-.08,1.67,1.67,0,0,1,.77.82A4.73,4.73,0,0,1,151.57,69Zm-3.67,1.16a.65.65,0,0,0,.7-.65.82.82,0,0,0-.78-.84.61.61,0,0,0-.65.62C147.17,69.79,147.46,70.13,147.9,70.13Zm2.13-.36a.72.72,0,0,0,.72-.63c0-.43-.43-.91-.81-.88a.6.6,0,0,0-.59.68A.77.77,0,0,0,150,69.78Z" transform="translate(-8.95 -5.34)"/><path class="cls-21" d="M165.41,58a.5.5,0,0,1-.13.57,2.46,2.46,0,0,0-.41.8c-.09.24.08.42.29.52a.35.35,0,0,0,.47-.16,7.71,7.71,0,0,0,.57-1c.14-.26.28-.44.6-.33h.11a.82.82,0,0,0,.52.16h.11a.33.33,0,0,0,.29.1l.1,0a4.56,4.56,0,0,0,1.2.39,17.62,17.62,0,0,1,2.1.79,10.85,10.85,0,0,1,2.36,1.33A4.84,4.84,0,0,1,175,62.82c.43.85.2,1.33-.67,1.82a7,7,0,0,1-4,.62c-.71,0-1.41-.18-2.11-.27s-1.54-.27-2.31-.4c-1.36-.24-2.71-.52-4.05-.83a40.52,40.52,0,0,1-3.93-1,9.25,9.25,0,0,1-3.37-1.83,5.32,5.32,0,0,1-.7-.78A.8.8,0,0,1,154,59a3.54,3.54,0,0,1,1.65-.89,4.76,4.76,0,0,0,.53-.21c.07.08.1,0,.12,0h.1c.08.08.1,0,.12-.05h.11c.07.08.1,0,.13,0l.16,0c.13.08.22,0,.3-.1h.22c.07.08.1,0,.13,0h.22c.1.07.18.07.24,0h.1c.07.07.1,0,.13,0l.38,0c.15.07.29.12.4-.05h.11c.11.08.22.09.3,0h.22a1.06,1.06,0,0,0,.74,0h.46a.44.44,0,0,0,.46,0h.61c.12.15.26.11.41,0h.22c.06.12.14.12.24,0h.27c.15.15.35.11.54.13h.16c0,.07.11.07.18.05h.11a1.28,1.28,0,0,0,.63.16h.16a.55.55,0,0,0,.46.13Z" transform="translate(-8.95 -5.34)"/><path class="cls-18" d="M169.13,59.05a4.56,4.56,0,0,1-1.2-.39A2.73,2.73,0,0,1,169.13,59.05Z" transform="translate(-8.95 -5.34)"/><path class="cls-18" d="M160.4,57.35a1.06,1.06,0,0,1-.74,0A1.1,1.1,0,0,1,160.4,57.35Z" transform="translate(-8.95 -5.34)"/><path class="cls-18" d="M164.69,57.86a1.28,1.28,0,0,1-.63-.16C164.28,57.69,164.51,57.66,164.69,57.86Z" transform="translate(-8.95 -5.34)"/><path class="cls-18" d="M163.61,57.63c-.18,0-.38,0-.54-.13A.57.57,0,0,1,163.61,57.63Z" transform="translate(-8.95 -5.34)"/><path class="cls-18" d="M167.43,58.54a.82.82,0,0,1-.52-.16A.57.57,0,0,1,167.43,58.54Z" transform="translate(-8.95 -5.34)"/><path class="cls-18" d="M161.32,57.36a.44.44,0,0,1-.46,0A.46.46,0,0,1,161.32,57.36Z" transform="translate(-8.95 -5.34)"/><path class="cls-18" d="M165.31,58a.55.55,0,0,1-.46-.13A.57.57,0,0,1,165.31,58Z" transform="translate(-8.95 -5.34)"/><path class="cls-18" d="M162.34,57.43c-.15.06-.29.1-.41,0C162.07,57.37,162.22,57.31,162.34,57.43Z" transform="translate(-8.95 -5.34)"/><path class="cls-18" d="M159,57.42c-.12.17-.26.12-.4.05C158.76,57.37,158.91,57.43,159,57.42Z" transform="translate(-8.95 -5.34)"/><path class="cls-18" d="M159.45,57.38c-.08.14-.18.12-.3,0C159.24,57.33,159.35,57.37,159.45,57.38Z" transform="translate(-8.95 -5.34)"/><path class="cls-18" d="M167.83,58.65a.33.33,0,0,1-.29-.1A.22.22,0,0,1,167.83,58.65Z" transform="translate(-8.95 -5.34)"/><path class="cls-18" d="M157.23,57.66c-.07.11-.16.17-.3.1A.42.42,0,0,1,157.23,57.66Z" transform="translate(-8.95 -5.34)"/><path class="cls-18" d="M162.8,57.48c-.1.08-.18.07-.24,0S162.73,57.4,162.8,57.48Z" transform="translate(-8.95 -5.34)"/><path class="cls-18" d="M158,57.55c-.06.12-.14.12-.24,0C157.85,57.51,157.94,57.53,158,57.55Z" transform="translate(-8.95 -5.34)"/><path class="cls-18" d="M163.95,57.69c-.07,0-.13,0-.18-.05S163.91,57.59,163.95,57.69Z" transform="translate(-8.95 -5.34)"/><path class="cls-18" d="M156.31,57.89c0,.06,0,.13-.12,0A.11.11,0,0,1,156.31,57.89Z" transform="translate(-8.95 -5.34)"/><path class="cls-18" d="M156.54,57.83c0,.06,0,.13-.12.05A.1.1,0,0,1,156.54,57.83Z" transform="translate(-8.95 -5.34)"/><path class="cls-18" d="M156.77,57.77c0,.06-.05.12-.13,0A.1.1,0,0,1,156.77,57.77Z" transform="translate(-8.95 -5.34)"/><path class="cls-18" d="M157.57,57.6c0,.06-.05.12-.13,0A.1.1,0,0,1,157.57,57.6Z" transform="translate(-8.95 -5.34)"/><path class="cls-18" d="M158.25,57.49c0,.06-.06.11-.13,0A.1.1,0,0,1,158.25,57.49Z" transform="translate(-8.95 -5.34)"/><path class="cls-15" d="M175.45,63.63c.19.07.19.07.05.25-.09-.07,0-.17-.05-.25Z" transform="translate(-8.95 -5.34)"/><path class="cls-15" d="M159,63.58s-.05,0-.07,0,0,0-.06,0,0,0,.06,0S159,63.55,159,63.58Z" transform="translate(-8.95 -5.34)"/><path class="cls-22" d="M171.88,72.05a2.8,2.8,0,0,1-.35,1.25,2.68,2.68,0,0,1-1.35,1.46,2.19,2.19,0,0,1-2.45-.2,3.57,3.57,0,0,1-1.4-1.94,2.55,2.55,0,0,1,.16-1.82,3.68,3.68,0,0,1,1-1.29,2.84,2.84,0,0,1,2.62-.73,1.85,1.85,0,0,1,1.21,1,7.37,7.37,0,0,1,.4.8A5.65,5.65,0,0,1,171.88,72.05Z" transform="translate(-8.95 -5.34)"/><path class="cls-23" d="M157.56,80.31a4.26,4.26,0,0,1,.72-1.86,3.94,3.94,0,0,1,3-1.7,4.81,4.81,0,0,1,3,.64,5.32,5.32,0,0,1,1.48,1.35,3.72,3.72,0,0,1,.39.69c.18.35.12.53-.22.8s-.48.06-.67-.1a5.32,5.32,0,0,0-2-1.06,4.55,4.55,0,0,0-4.06.74,6.1,6.1,0,0,0-.91.81c-.15.16-.3.29-.52.19A.47.47,0,0,1,157.56,80.31Zm7-1.48.12.05a1.39,1.39,0,0,0,.59.37,1,1,0,0,0-.44-.51,3.86,3.86,0,0,0-2.48-1.23h-.11a.65.65,0,0,0-.16,0,3.75,3.75,0,0,0-3.31,1.42,2.33,2.33,0,0,0-.56,1.07c.11-.12.19-.19.26-.27a3.57,3.57,0,0,1,1.44-1.07c.33-.14.67-.25,1-.37H161c.34,0,.67-.09,1-.1a4.61,4.61,0,0,1,2.53.7v0Z" transform="translate(-8.95 -5.34)"/><path class="cls-14" d="M162.17,65.3a3,3,0,0,1,1.75.3,2.08,2.08,0,0,1,1.12.94.5.5,0,0,1-.07.54A3.67,3.67,0,0,1,163,68.42a3,3,0,0,1-1.51,0,3.13,3.13,0,0,1-2.25-1.8c-.13-.26,0-.5.38-.74A4,4,0,0,1,162.17,65.3Zm-1.42,1-.44.06a.37.37,0,0,0-.28.21c0,.12.07.18.14.25a.49.49,0,0,0,.32.16,1.91,1.91,0,0,0,.92.5,1.22,1.22,0,0,0,.75.19,2.28,2.28,0,0,0,2-.74c.08-.08.1-.16,0-.25a1.32,1.32,0,0,0-.37-.38,3.08,3.08,0,0,0-2.34-.16A2.12,2.12,0,0,0,160.75,66.31Z" transform="translate(-8.95 -5.34)"/><path class="cls-14" d="M156.46,65.11a3.36,3.36,0,0,1,2.3.84.73.73,0,0,1,0,1.14,3.31,3.31,0,0,1-3.75.62,3,3,0,0,1-1.24-1.27c-.18-.31-.09-.5.23-.63s.65-.3,1-.44A3.31,3.31,0,0,1,156.46,65.11Zm-1.33,1.71a1.56,1.56,0,0,0,1.07.39,2.64,2.64,0,0,0,1.74-.48c.22-.15.23-.31,0-.46a2.56,2.56,0,0,0-1.7-.41.13.13,0,0,0-.14.11.86.86,0,0,0-.77.17c-.27-.1-.48.09-.71.16a.07.07,0,0,0,0,.12C154.78,66.58,154.86,66.82,155.14,66.82Z" transform="translate(-8.95 -5.34)"/><path class="cls-14" d="M147.9,70.13c-.44,0-.73-.35-.72-.86a.61.61,0,0,1,.65-.62.82.82,0,0,1,.78.84A.65.65,0,0,1,147.9,70.13Z" transform="translate(-8.95 -5.34)"/><path class="cls-23" d="M150,69.78a.77.77,0,0,1-.68-.82.6.6,0,0,1,.59-.68c.38,0,.8.45.81.88A.72.72,0,0,1,150,69.78Z" transform="translate(-8.95 -5.34)"/><path class="cls-16" d="M162.23,77.49h.11c.05.13.18.13.29.14a3.72,3.72,0,0,1,1.44.69c-.27-.13-.58,0-.84-.18a1.34,1.34,0,0,0-.65-.15l-1.22,0c-.18,0-.3,0-.39.18h-.07a3,3,0,0,0-1.61.5c-.07,0-.15.19-.23.08s.05-.19.14-.23a4.18,4.18,0,0,0,.53-.42,4.72,4.72,0,0,1,1.3-.49A7.18,7.18,0,0,1,162.23,77.49Z" transform="translate(-8.95 -5.34)"/><path class="cls-18" d="M162.23,77.49a7.18,7.18,0,0,0-1.19.16,4.72,4.72,0,0,0-1.3.49,4.18,4.18,0,0,1-.53.42c-.09,0-.22.13-.14.23s.16,0,.23-.08a3,3,0,0,1,1.61-.5c-.34.12-.68.23-1,.37a3.57,3.57,0,0,0-1.44,1.07c-.06.08-.14.15-.26.27a2.33,2.33,0,0,1,.56-1.07,3.75,3.75,0,0,1,3.31-1.42A.65.65,0,0,1,162.23,77.49Z" transform="translate(-8.95 -5.34)"/><path class="cls-18" d="M161,78.21c.08-.16.2-.18.39-.18l1.22,0a1.34,1.34,0,0,1,.65.15c.26.14.57.05.84.18a3.72,3.72,0,0,0-1.44-.69c-.1,0-.23,0-.29-.14a3.86,3.86,0,0,1,2.48,1.23.21.21,0,0,1-.14.15l-.12-.05a0,0,0,0,0,0,0,4.61,4.61,0,0,0-2.53-.7C161.65,78.13,161.32,78.18,161,78.21Z" transform="translate(-8.95 -5.34)"/><path class="cls-21" d="M164.68,78.88a.21.21,0,0,0,.14-.15,1,1,0,0,1,.44.52A1.39,1.39,0,0,1,164.68,78.88Z" transform="translate(-8.95 -5.34)"/><path class="cls-21" d="M164.52,78.81a0,0,0,0,1,0,0h0Z" transform="translate(-8.95 -5.34)"/><path class="cls-12" d="M161.44,66.16a3.08,3.08,0,0,1,2.34.16,1.32,1.32,0,0,1,.37.38c.07.09,0,.17,0,.25a2.28,2.28,0,0,1-2,.74,1.22,1.22,0,0,1-.75-.19C162,67.07,162,66.51,161.44,66.16Z" transform="translate(-8.95 -5.34)"/><path class="cls-15" d="M161.44,66.16c.55.35.54.91,0,1.34a1.91,1.91,0,0,1-.92-.5.9.9,0,0,1,.26-.69A2.12,2.12,0,0,1,161.44,66.16Z" transform="translate(-8.95 -5.34)"/><path class="cls-17" d="M160.75,66.31a.9.9,0,0,0-.26.69.49.49,0,0,1-.32-.16c-.07-.07-.19-.13-.14-.25a.37.37,0,0,1,.28-.21Z" transform="translate(-8.95 -5.34)"/><path class="cls-12" d="M156.13,66a.13.13,0,0,1,.14-.11,2.56,2.56,0,0,1,1.7.41c.22.15.21.31,0,.46a2.64,2.64,0,0,1-1.74.48C156.62,66.69,156.59,66.29,156.13,66Z" transform="translate(-8.95 -5.34)"/><path class="cls-15" d="M156.13,66c.46.31.49.71.09,1.23a1.56,1.56,0,0,1-1.07-.39.77.77,0,0,1,.22-.67A.86.86,0,0,1,156.13,66Z" transform="translate(-8.95 -5.34)"/><path class="cls-12" d="M155.36,66.15a.77.77,0,0,0-.22.67c-.27,0-.36-.23-.51-.39a.07.07,0,0,1,0-.12C154.88,66.23,155.09,66,155.36,66.15Z" transform="translate(-8.95 -5.34)"/><path class="cls-4" d="M146,94.26c-1-13,15.42-21.1,25.83-18.46C184.25,78.94,189,87.1,189,94.26h-6c-2.32-7.45-9.93-13.73-16.21-12.76-7.41,1.14-13.33,4.23-14.79,12.76Z" transform="translate(-8.95 -5.34)"/></svg>