<svg id="Layer_1" data-name="Layer 1" xmlns="http://www.w3.org/2000/svg" viewBox="0 0 167.04 138.72"><defs><style>.cls-1{fill:#ff453f;}.cls-1,.cls-2,.cls-3{stroke:#000;stroke-miterlimit:10;}.cls-2{fill:#ff9500;}.cls-3{fill:#feff2a;}</style></defs><title>fuego</title><polygon class="cls-1" points="17.34 133.88 1.01 89.88 28.68 108.55 14.84 51.88 48.01 90.22 43.68 29.55 67.01 74.55 60.01 1.88 89.68 45.22 111.01 7.88 129.01 55.55 166.01 42.88 140.01 91.88 166.01 118.88 127.68 138.22 17.34 136.88 17.34 133.88"/><polygon class="cls-2" points="127.68 137.22 149.68 115.22 130.68 91.88 143.34 61.55 120.68 80.05 110.01 41.55 96.34 86.55 69.01 29.88 75.01 100.88 50.01 54.55 54.68 109.55 25.68 74.55 38.68 117.38 12.68 104.55 17.34 135.88 127.68 137.22"/><polygon class="cls-3" points="21.68 132.22 18.68 112.88 41.68 122.55 35.68 92.88 54.34 117.22 61.68 92.88 76.68 114.88 81.18 76.22 100.68 113.22 109.34 67.55 116.34 96.2 130.34 78.55 126.68 94.22 144.01 114.88 125.34 137.19 21.67 135.94 21.68 132.22"/></svg>